{
	"asset":{
		"generator":"Khronos glTF Blender I/O v3.6.27",
		"version":"2.0"
	},
	"scene":0,
	"scenes":[
		{
			"name":"Scene",
			"nodes":[
				0
			]
		}
	],
	"nodes":[
		{
			"mesh":0,
			"name":"right_hand_system_assembled"
		}
	],
	"materials":[
		{
			"doubleSided":true,
			"name":"Mat",
			"pbrMetallicRoughness":{
				"baseColorTexture":{
					"index":0
				},
				"metallicFactor":0,
				"roughnessFactor":0.5
			}
		}
	],
	"meshes":[
		{
			"name":"right_hand_system_assembled",
			"primitives":[
				{
					"attributes":{
						"POSITION":0,
						"NORMAL":1,
						"TEXCOORD_0":2
					},
					"indices":3,
					"material":0
				}
			]
		}
	],
	"textures":[
		{
			"sampler":0,
			"source":0
		}
	],
	"images":[
		{
			"bufferView":4,
			"mimeType":"image/png",
			"name":"RenderedTexture"
		}
	],
	"accessors":[
		{
			"bufferView":0,
			"componentType":5126,
			"count":14522,
			"max":[
				0.8764848709106445,
				1.0012704133987427,
				0.11293374747037888
			],
			"min":[
				-0.12478548288345337,
				-2.143863054249418e-17,
				-0.8883366584777832
			],
			"type":"VEC3"
		},
		{
			"bufferView":1,
			"componentType":5126,
			"count":14522,
			"type":"VEC3"
		},
		{
			"bufferView":2,
			"componentType":5126,
			"count":14522,
			"type":"VEC2"
		},
		{
			"bufferView":3,
			"componentType":5123,
			"count":15744,
			"type":"SCALAR"
		}
	],
	"bufferViews":[
		{
			"buffer":0,
			"byteLength":174264,
			"byteOffset":0,
			"target":34962
		},
		{
			"buffer":0,
			"byteLength":174264,
			"byteOffset":174264,
			"target":34962
		},
		{
			"buffer":0,
			"byteLength":116176,
			"byteOffset":348528,
			"target":34962
		},
		{
			"buffer":0,
			"byteLength":31488,
			"byteOffset":464704,
			"target":34963
		},
		{
			"buffer":0,
			"byteLength":532410,
			"byteOffset":496192
		}
	],
	"samplers":[
		{
			"magFilter":9729,
			"minFilter":9987
		}
	],
	"buffers":[
		{
			"byteLength":1028604,
			"uri":"data:application/octet-stream;base64,"
		}
	]
}
