{
	"asset":{
		"generator":"Khronos glTF Blender I/O v3.6.27",
		"version":"2.0"
	},
	"scene":0,
	"scenes":[
		{
			"name":"Scene",
			"nodes":[
				0
			]
		}
	],
	"nodes":[
		{
			"mesh":0,
			"name":"humvee.001",
			"rotation":[
				0,
				1,
				0,
				7.549790126404332e-08
			]
		}
	],
	"materials":[
		{
			"doubleSided":true,
			"name":"Material",
			"pbrMetallicRoughness":{
				"baseColorTexture":{
					"index":0
				},
				"metallicFactor":0
			}
		}
	],
	"meshes":[
		{
			"name":"Cube.007",
			"primitives":[
				{
					"attributes":{
						"POSITION":0,
						"NORMAL":1,
						"TEXCOORD_0":2
					},
					"indices":3,
					"material":0
				}
			]
		}
	],
	"textures":[
		{
			"sampler":0,
			"source":0
		}
	],
	"images":[
		{
			"bufferView":4,
			"mimeType":"image/png",
			"name":"humveetexture"
		}
	],
	"accessors":[
		{
			"bufferView":0,
			"componentType":5126,
			"count":14408,
			"max":[
				2.222545862197876,
				1.991751790046692,
				1.510312795639038
			],
			"min":[
				-2.4601082801818848,
				-0.005597695708274841,
				-1.191411018371582
			],
			"type":"VEC3"
		},
		{
			"bufferView":1,
			"componentType":5126,
			"count":14408,
			"type":"VEC3"
		},
		{
			"bufferView":2,
			"componentType":5126,
			"count":14408,
			"type":"VEC2"
		},
		{
			"bufferView":3,
			"componentType":5123,
			"count":24444,
			"type":"SCALAR"
		}
	],
	"bufferViews":[
		{
			"buffer":0,
			"byteLength":172896,
			"byteOffset":0,
			"target":34962
		},
		{
			"buffer":0,
			"byteLength":172896,
			"byteOffset":172896,
			"target":34962
		},
		{
			"buffer":0,
			"byteLength":115264,
			"byteOffset":345792,
			"target":34962
		},
		{
			"buffer":0,
			"byteLength":48888,
			"byteOffset":461056,
			"target":34963
		},
		{
			"buffer":0,
			"byteLength":285,
			"byteOffset":509944
		}
	],
	"samplers":[
		{
			"magFilter":9728,
			"minFilter":9984
		}
	],
	"buffers":[
		{
			"byteLength":510232,
			"uri":"data:application/octet-stream;base64,"
		}
	]
}
