{
	"asset":{
		"generator":"Khronos glTF Blender I/O v3.6.27",
		"version":"2.0"
	},
	"scene":0,
	"scenes":[
		{
			"name":"Scene",
			"nodes":[
				0
			]
		}
	],
	"nodes":[
		{
			"mesh":0,
			"name":"humvee.001",
			"rotation":[
				0,
				1,
				0,
				7.549790126404332e-08
			],
			"translation":[
				1.7905519008636475,
				0.4754929542541504,
				0
			]
		}
	],
	"materials":[
		{
			"doubleSided":true,
			"name":"Material.001",
			"pbrMetallicRoughness":{
				"baseColorTexture":{
					"index":0
				},
				"metallicFactor":0
			}
		}
	],
	"meshes":[
		{
			"name":"Cube.007",
			"primitives":[
				{
					"attributes":{
						"POSITION":0,
						"NORMAL":1,
						"TEXCOORD_0":2
					},
					"indices":3,
					"material":0
				}
			]
		}
	],
	"textures":[
		{
			"sampler":0,
			"source":0
		}
	],
	"images":[
		{
			"bufferView":4,
			"mimeType":"image/png",
			"name":"humveetexture"
		}
	],
	"accessors":[
		{
			"bufferView":0,
			"componentType":5126,
			"count":14941,
			"max":[
				4.013097763061523,
				1.516258955001831,
				1.510312795639038
			],
			"min":[
				-0.6695563793182373,
				-0.4810906648635864,
				-1.191411018371582
			],
			"type":"VEC3"
		},
		{
			"bufferView":1,
			"componentType":5126,
			"count":14941,
			"type":"VEC3"
		},
		{
			"bufferView":2,
			"componentType":5126,
			"count":14941,
			"type":"VEC2"
		},
		{
			"bufferView":3,
			"componentType":5123,
			"count":24444,
			"type":"SCALAR"
		}
	],
	"bufferViews":[
		{
			"buffer":0,
			"byteLength":179292,
			"byteOffset":0,
			"target":34962
		},
		{
			"buffer":0,
			"byteLength":179292,
			"byteOffset":179292,
			"target":34962
		},
		{
			"buffer":0,
			"byteLength":119528,
			"byteOffset":358584,
			"target":34962
		},
		{
			"buffer":0,
			"byteLength":48888,
			"byteOffset":478112,
			"target":34963
		},
		{
			"buffer":0,
			"byteLength":285,
			"byteOffset":527000
		}
	],
	"samplers":[
		{
			"magFilter":9728,
			"minFilter":9984
		}
	],
	"buffers":[
		{
			"byteLength":527288,
			"uri":"data:application/octet-stream;base64,"
		}
	]
}
