{
	"asset":{
		"generator":"Khronos glTF Blender I/O v3.6.27",
		"version":"2.0"
	},
	"extensionsUsed":[
		"KHR_materials_ior"
	],
	"scene":0,
	"scenes":[
		{
			"name":"Scene",
			"nodes":[
				0
			]
		}
	],
	"nodes":[
		{
			"mesh":0,
			"name":"s30 (3)"
		}
	],
	"materials":[
		{
			"doubleSided":true,
			"extensions":{
				"KHR_materials_specular":{
					"specularColorFactor":[
						0,
						0,
						0
					]
				},
				"KHR_materials_ior":{
					"ior":1.4500000476837158
				}
			},
			"name":"Opaque(76,76,76).003",
			"pbrMetallicRoughness":{}
		}
	],
	"meshes":[
		{
			"name":"s30 (3)",
			"primitives":[
				{
					"attributes":{
						"POSITION":0,
						"NORMAL":1,
						"TEXCOORD_0":2
					},
					"indices":3,
					"material":0
				}
			]
		}
	],
	"accessors":[
		{
			"bufferView":0,
			"componentType":5126,
			"count":27307,
			"max":[
				0.05945665016770363,
				0.03481750562787056,
				0.1800684779882431
			],
			"min":[
				-0.0688672587275505,
				-0.026153694838285446,
				-0.17693156003952026
			],
			"type":"VEC3"
		},
		{
			"bufferView":1,
			"componentType":5126,
			"count":27307,
			"type":"VEC3"
		},
		{
			"bufferView":2,
			"componentType":5126,
			"count":27307,
			"type":"VEC2"
		},
		{
			"bufferView":3,
			"componentType":5123,
			"count":27708,
			"type":"SCALAR"
		}
	],
	"bufferViews":[
		{
			"buffer":0,
			"byteLength":327684,
			"byteOffset":0,
			"target":34962
		},
		{
			"buffer":0,
			"byteLength":327684,
			"byteOffset":327684,
			"target":34962
		},
		{
			"buffer":0,
			"byteLength":218456,
			"byteOffset":655368,
			"target":34962
		},
		{
			"buffer":0,
			"byteLength":55416,
			"byteOffset":873824,
			"target":34963
		}
	],
	"buffers":[
		{
			"byteLength":929240,
			"uri":"data:application/octet-stream;base64,"
		}
	]
}
