ply
format ascii 1.0
element vertex 4
property float x
property float y
property float z
property float scale_0
property float scale_1
property float scale_2
property float rot_0
property float rot_1
property float rot_2
property float rot_3
property float opacity
property float f_dc_0
property float f_dc_1
property float f_dc_2
property float f_rest_0
property float f_rest_1
property float f_rest_2
property float f_rest_3
property float f_rest_4
property float f_rest_5
property float f_rest_6
property float f_rest_7
property float f_rest_8
property float f_rest_9
property float f_rest_10
property float f_rest_11
property float f_rest_12
property float f_rest_13
property float f_rest_14
property float f_rest_15
property float f_rest_16
property float f_rest_17
property float f_rest_18
property float f_rest_19
property float f_rest_20
property float f_rest_21
property float f_rest_22
property float f_rest_23
property float f_rest_24
property float f_rest_25
property float f_rest_26
property float f_rest_27
property float f_rest_28
property float f_rest_29
property float f_rest_30
property float f_rest_31
property float f_rest_32
property float f_rest_33
property float f_rest_34
property float f_rest_35
property float f_rest_36
property float f_rest_37
property float f_rest_38
property float f_rest_39
property float f_rest_40
property float f_rest_41
property float f_rest_42
property float f_rest_43
property float f_rest_44
end_header
0 0 0 -2.30258512496948242 -2.30258512496948242 -2.30258512496948242 1 0 0 0 1 1 1 0 0.03 1.3 1 0.3 1 1.23 1 1 0.76 0 0 0 0 0 0 0 0 0 0 0 0 0 0 0 0 0 0 0 0 0 0 0 0 0 0 0 0 0 0 0 0 0 0 0 0
1 0 0 -1.20397281646728516 -2.30258512496948242 -2.30258512496948242 1 0 0 0 1 1 0 0 0.03 1.5 1 0.3 1 1 1 0.865 0.99 0 0 0 0 0 0 0 0 0 0 0 0 0 0 0 0 0 0 0 0 0 0 0 0 0 0 0 0 0 0 0 0 0 0 0 0
0 1 0 -2.30258512496948242 -1.20397281646728516 -2.30258512496948242 1 0 0 0 1 0 1 0 0.03 2 1 0.3 1 1 1 1 1.2 0 0 0 0 0 0 0 0 0 0 0 0 0 0 0 0 0 0 0 0 0 0 0 0 0 0 0 0 0 0 0 0 0 0 0 0
0 0 1 -2.30258512496948242 -2.30258512496948242 -1.20397281646728516 1 0 0 0 1 0 0 1 0.03 1.5 1 0.3 1 1 1 0.2 0.44 0 0 0 0 0 0 0 0 0 0 0 0 0 0 0 0 0 0 0 0 0 0 0 0 0 0 0 0 0 0 0 0 0 0 0 0
